<svg id="Layer_1" data-name="Layer 1" xmlns="http://www.w3.org/2000/svg" viewBox="0 0 796 367"><defs><style>.cls-1{fill:#202945;}</style></defs><path class="cls-1" d="M570.76,189.91v-115a2.42,2.42,0,0,1,2.42-2.42H723a1.73,1.73,0,0,1,1.22,3l-35.69,35.7a1.77,1.77,0,0,1-1.22.51H622.94v115a2.41,2.41,0,0,1-2.41,2.41H573.18a2.42,2.42,0,0,1-2.42-2.41V203L544.7,229H443.56a2.41,2.41,0,0,1-2.42-2.41V85.53l-25.55,25.56a1.77,1.77,0,0,1-1.22.51H375.92v115A2.42,2.42,0,0,1,373.5,229H326.15a2.42,2.42,0,0,1-2.42-2.41v-115H261.35v115a2.41,2.41,0,0,1-2.41,2.41H211.59a2.41,2.41,0,0,1-2.42-2.41V143.24l-26.55,26.57a1.72,1.72,0,0,1-1.22.5H131.69v56.3a2.42,2.42,0,0,1-2.42,2.41H81.93a2.41,2.41,0,0,1-2.41-2.41V74.93a2.41,2.41,0,0,1,2.41-2.42h47.34a2.42,2.42,0,0,1,2.42,2.42v56.26h77.48V74.93a2.42,2.42,0,0,1,2.42-2.42h47.35a2.41,2.41,0,0,1,2.41,2.42V98.77L286.9,73.05a1.72,1.72,0,0,1,1.22-.5l202.79,0a2.41,2.41,0,0,1,2.41,2.42v115Z"/><path class="cls-1" d="M706.22,167.46l-35.76-35.77a1.68,1.68,0,0,0-2.38,0l-35.76,35.77a1.68,1.68,0,0,0,1.19,2.87H705A1.68,1.68,0,0,0,706.22,167.46Z"/><path class="cls-1" d="M42.35,332.1c-10.57,0-17.13-5.29-17.13-13.19h4.42c0,5.76,4.61,9.37,13,9.37,6.43,0,12.45-3.21,12.45-9.3,0-5.35-3.48-7.7-9.24-8.7L38,308.87c-8.1-1.47-11.85-6-11.85-12.45,0-7.76,6.9-12.52,16.2-12.52,10,0,16.2,5.29,16.2,13.19H54.13c0-5.76-4.28-9.37-12.11-9.37-6.09,0-11.58,2.94-11.58,8.84,0,5.08,3.21,7.36,8.7,8.36L47,306.33c8.37,1.47,12.38,6.09,12.38,12.78C59.35,327.21,51.92,332.1,42.35,332.1Z"/><path class="cls-1" d="M70.06,323.73V301.44H63.7V298h3.48c2.15,0,2.88-.87,2.88-2.81v-5.76h3.82V298h8v3.48h-8v22.09c0,2.21.8,4.35,4.21,4.35h3.69v3.55H77.56C73.34,331.43,70.06,329.22,70.06,323.73Z"/><path class="cls-1" d="M106.27,298v3.68h-4.15c-5.89,0-8.9,4.09-8.9,10.78v19H89.4V298h3.15l.6,5.29a10.15,10.15,0,0,1,9-5.29Z"/><path class="cls-1" d="M142.28,315.84h-28c.2,8.49,5.62,12.78,12.31,12.78a11.59,11.59,0,0,0,11.32-7.5h3.94c-2.07,6.56-7.56,10.85-15.26,10.85-9.84,0-16.33-6.9-16.33-17.34s6.49-17.34,16.2-17.34c9.5,0,15.86,6.63,15.86,16.4Zm-28-3.29h24c-.47-8-5.43-12-11.85-12S115,304.59,114.3,312.55Z"/><path class="cls-1" d="M178.36,311.35v20.08h-3.88V312.08c0-7.56-4.09-11.11-9.91-11.11-7,0-10.71,5.09-10.71,12.12v18.34H150V298h3.15l.6,5.62c2-4.15,6.23-6.29,11.38-6.29C173.41,297.29,178.36,302.78,178.36,311.35Z"/><path class="cls-1" d="M216.24,298v32.53c0,9-6,15-15.33,15-7.76,0-13.32-4.29-14.72-10.85h4.21c1.27,5,5.36,7.5,10.51,7.5,7.43,0,11.52-4.42,11.52-11.05v-7.43c-2.08,4.56-7,7.1-12.32,7.1-8.17,0-14.93-6-14.93-16.67s6.63-16.8,14.93-16.8c5.16,0,10,2.41,12.25,6.76L213,298Zm-4,16.2c0-8.1-4.69-13.59-11.72-13.59s-11.31,5.56-11.31,13.59,4.35,13.25,11.31,13.25S212.23,322.33,212.23,314.16Z"/><path class="cls-1" d="M229.89,323.73V301.44h-6.36V298H227c2.15,0,2.88-.87,2.88-2.81v-5.76h3.82V298h8v3.48h-8v22.09c0,2.21.8,4.35,4.22,4.35h3.68v3.55h-4.22C233.17,331.43,229.89,329.22,229.89,323.73Z"/><path class="cls-1" d="M279,311.35v20.08h-3.88V312.08c0-7.83-3.76-11.11-9.51-11.11-7.23,0-11.11,5.23-11.11,12.12v18.34h-3.82V282.56h3.82v20.89c2.14-3.95,6.89-6.16,11.64-6.16C272.6,297.29,279,300.77,279,311.35Z"/><path class="cls-1" d="M287.72,325.14H294v6.29h-6.29Z"/><path class="cls-1" d="M323.93,331.43h-4.08V284.57h4.08Z"/><path class="cls-1" d="M362.89,311.35v20.08H359V312.08c0-7.56-4.09-11.11-9.91-11.11-7,0-10.71,5.09-10.71,12.12v18.34h-3.82V298h3.15l.6,5.62c2-4.15,6.23-6.29,11.38-6.29C357.93,297.29,362.89,302.78,362.89,311.35Z"/><path class="cls-1" d="M374.4,321.86c.2,4.42,3.88,7,9.7,7s9.58-2.34,9.58-6.43c0-3.41-1.74-5.15-5.76-5.69l-7.16-1.07c-6.3-.93-9.51-3.68-9.51-9,0-5.69,5.29-9.37,12.45-9.37,7.57,0,13.06,3.55,13.19,10.24H393c-.14-4.55-3.95-7-9.24-7s-8.77,2.21-8.77,6.09c0,3.22,1.94,4.89,6.49,5.49l7.1,1.07c6,.87,9,3.55,9,8.84,0,6.36-5.76,10-13.32,10-8.77,0-13.66-4-13.86-10.24Z"/><path class="cls-1" d="M405.05,284.57h5.69v5.22h-5.69ZM406,298h3.82v33.47H406Z"/><path class="cls-1" d="M449.1,298v32.53c0,9-6,15-15.33,15-7.77,0-13.32-4.29-14.73-10.85h4.22c1.27,5,5.35,7.5,10.51,7.5,7.43,0,11.51-4.42,11.51-11.05v-7.43c-2.08,4.56-7,7.1-12.32,7.1-8.16,0-14.92-6-14.92-16.67s6.62-16.8,14.92-16.8c5.16,0,10,2.41,12.25,6.76l.67-6.09Zm-4,16.2c0-8.1-4.69-13.59-11.72-13.59s-11.31,5.56-11.31,13.59,4.35,13.25,11.31,13.25S445.08,322.33,445.08,314.16Z"/><path class="cls-1" d="M486.71,311.35v20.08h-3.88V312.08c0-7.83-3.75-11.11-9.51-11.11-7.23,0-11.11,5.23-11.11,12.12v18.34h-3.82V282.56h3.82v20.89c2.14-3.95,6.9-6.16,11.65-6.16C480.35,297.29,486.71,300.77,486.71,311.35Z"/><path class="cls-1" d="M498.89,323.73V301.44h-6.36V298H496c2.14,0,2.88-.87,2.88-2.81v-5.76h3.82V298h8v3.48h-8v22.09c0,2.21.8,4.35,4.21,4.35h3.69v3.55h-4.22C502.17,331.43,498.89,329.22,498.89,323.73Z"/><path class="cls-1" d="M517.5,325.14h6.29v6.29H517.5Z"/><path class="cls-1" d="M588.78,306.4v25.1h-3.21l-.87-8.24c-3.41,5.89-9.84,8.77-16.87,8.77-13.19,0-22.16-9.84-22.16-23.83s9-24.3,22.16-24.3c10.91,0,18.34,5.89,20.89,14.8h-4.56c-2.81-7.43-8.63-10.91-16.33-10.91-11,0-17.87,8.5-17.87,20.35s7,20,17.87,20c7.23,0,15.87-4.35,16.8-14.39v-3.48H568.77V306.4Z"/><path class="cls-1" d="M615.75,298v3.68H611.6c-5.89,0-8.9,4.09-8.9,10.78v19h-3.82V298H602l.6,5.29a10.16,10.16,0,0,1,9-5.29Z"/><path class="cls-1" d="M636.1,297.29c10.11,0,16.74,7.16,16.74,17.47s-6.63,17.34-16.74,17.34-16.73-7.16-16.73-17.34S626,297.29,636.1,297.29Zm0,31.4c7.63,0,12.72-5.49,12.72-14s-5.09-14.06-12.72-14.06-12.72,5.49-12.72,14.06S628.47,328.69,636.1,328.69Z"/><path class="cls-1" d="M668.56,327.08,678.4,298h3.88l9.84,29.12L700.29,298h4l-9.77,33.47h-4.55l-9.78-28.38-9.5,28.38h-4.55L656,298h4.09Z"/><path class="cls-1" d="M715.88,323.73V301.44h-6.36V298H713c2.14,0,2.87-.87,2.87-2.81v-5.76h3.82V298h8v3.48h-8v22.09c0,2.21.8,4.35,4.22,4.35h3.68v3.55h-4.22C719.16,331.43,715.88,329.22,715.88,323.73Z"/><path class="cls-1" d="M763.94,311.35v20.08h-3.88V312.08c0-7.83-3.75-11.11-9.51-11.11-7.23,0-11.11,5.23-11.11,12.12v18.34h-3.81V282.56h3.81v20.89c2.14-3.95,6.9-6.16,11.65-6.16C757.58,297.29,763.94,300.77,763.94,311.35Z"/><path class="cls-1" d="M772.71,325.14H779v6.29h-6.29Z"/></svg>